<?xml version="1.0" encoding="UTF-8" standalone="no"?>
<!DOCTYPE svg PUBLIC "-//W3C//DTD SVG 1.1//EN"
 "http://www.w3.org/Graphics/SVG/1.1/DTD/svg11.dtd">
<!-- Generated by graphviz version 2.43.0 (0)
 -->
<!-- Title: Root Pages: 1 -->
<svg width="1726pt" height="698pt"
 viewBox="0.00 0.00 1726.00 697.80" xmlns="http://www.w3.org/2000/svg" xmlns:xlink="http://www.w3.org/1999/xlink">
<g id="graph0" class="graph" transform="scale(1 1) rotate(0) translate(4 693.8)">
<title>Root</title>
<polygon fill="white" stroke="transparent" points="-4,4 -4,-693.8 1722,-693.8 1722,4 -4,4"/>
<g id="clust1" class="cluster">
<title>cluster0</title>
<path fill="lightgrey" stroke="darkgray" d="M20,-8C20,-8 1677,-8 1677,-8 1683,-8 1689,-14 1689,-20 1689,-20 1689,-669.8 1689,-669.8 1689,-675.8 1683,-681.8 1677,-681.8 1677,-681.8 20,-681.8 20,-681.8 14,-681.8 8,-675.8 8,-669.8 8,-669.8 8,-20 8,-20 8,-14 14,-8 20,-8"/>
<text text-anchor="middle" x="848.5" y="-666.6" font-family="Arial" font-size="14.00">ControlPilotObserver</text>
</g>
<g id="clust2" class="cluster">
<title>cluster1</title>
<path fill="lightgrey" stroke="darkgray" d="M28,-16C28,-16 1669,-16 1669,-16 1675,-16 1681,-22 1681,-28 1681,-28 1681,-514 1681,-514 1681,-520 1675,-526 1669,-526 1669,-526 28,-526 28,-526 22,-526 16,-520 16,-514 16,-514 16,-28 16,-28 16,-22 22,-16 28,-16"/>
<text text-anchor="middle" x="848.5" y="-510.8" font-family="Arial" font-size="14.00">ObserveState</text>
</g>
<!-- node0 -->
<g id="node0" class="node">
<title>node0</title>
<ellipse fill="black" stroke="black" cx="799" cy="-645.4" rx="5.4" ry="5.4"/>
<text text-anchor="start" x="770.6" y="-654.4" font-family="Times,serif" font-style="italic" font-size="8.00">Initial</text>
</g>
<!-- node1 -->
<g id="node1" class="node">
<title>node1</title>
<path fill="#e0e0e0" stroke="#000000" d="M814,-603C814,-603 784,-603 784,-603 778,-603 772,-597 772,-591 772,-591 772,-579 772,-579 772,-573 778,-567 784,-567 784,-567 814,-567 814,-567 820,-567 826,-573 826,-579 826,-579 826,-591 826,-591 826,-597 820,-603 814,-603"/>
<text text-anchor="middle" x="799" y="-581.3" font-family="Arial" font-size="14.00">Wait</text>
</g>
<!-- node0&#45;&gt;node1 -->
<g id="edge1" class="edge">
<title>node0&#45;&gt;node1</title>
<path fill="none" stroke="black" d="M799,-639.82C799,-634.03 799,-623.6 799,-613.45"/>
<polygon fill="black" stroke="black" points="802.5,-613.18 799,-603.18 795.5,-613.18 802.5,-613.18"/>
</g>
<!-- node2 -->
<g id="node2" class="node">
<title>node2</title>
<ellipse fill="black" stroke="black" cx="799" cy="-477" rx="5.4" ry="5.4"/>
<text text-anchor="start" x="770.6" y="-486" font-family="Times,serif" font-style="italic" font-size="8.00">Initial</text>
</g>
<!-- node1&#45;&gt;node2 -->
<g id="edge2" class="edge">
<title>node1&#45;&gt;node2</title>
<path fill="none" stroke="black" d="M771.57,-582.85C747.76,-580.22 714.57,-572.28 698,-549 672.94,-513.79 717.99,-533.97 746.43,-529.08"/>
<polygon fill="black" stroke="black" points="747.56,-532.4 756,-526 745.41,-525.74 747.56,-532.4"/>
<text text-anchor="start" x="698" y="-538.8" font-family="Courier,monospace" font-size="14.00"> </text>
<text text-anchor="start" x="707" y="-538.8" font-family="Courier,monospace" font-weight="bold" font-size="10.00">evControlPilotObserverStart</text>
<text text-anchor="start" x="870" y="-538.8" font-family="Courier,monospace" font-size="14.00"> </text>
</g>
<!-- node2&#45;&gt;node1 -->
<g id="edge3" class="edge">
<title>node2&#45;&gt;node1</title>
<path fill="none" stroke="black" d="M880.5,-526C884.12,-533.19 884.29,-540.92 879,-549 869.38,-563.71 852.07,-572.27 836,-577.24"/>
<polygon fill="black" stroke="black" points="834.97,-573.9 826.24,-579.89 836.8,-580.65 834.97,-573.9"/>
<text text-anchor="start" x="883" y="-538.8" font-family="Courier,monospace" font-size="14.00"> </text>
<text text-anchor="start" x="892" y="-538.8" font-family="Courier,monospace" font-weight="bold" font-size="10.00">evControlPilotObserverStop</text>
<text text-anchor="start" x="1049" y="-538.8" font-family="Courier,monospace" font-size="14.00"> </text>
</g>
<!-- node3 -->
<g id="node3" class="node">
<title>node3</title>
<path fill="#e0e0e0" stroke="#000000" d="M304.5,-408C304.5,-408 255.5,-408 255.5,-408 249.5,-408 243.5,-402 243.5,-396 243.5,-396 243.5,-384 243.5,-384 243.5,-378 249.5,-372 255.5,-372 255.5,-372 304.5,-372 304.5,-372 310.5,-372 316.5,-378 316.5,-384 316.5,-384 316.5,-396 316.5,-396 316.5,-402 310.5,-408 304.5,-408"/>
<text text-anchor="middle" x="280" y="-386.3" font-family="Arial" font-size="14.00">Unknown</text>
</g>
<!-- node2&#45;&gt;node3 -->
<g id="edge10" class="edge">
<title>node2&#45;&gt;node3</title>
<path fill="none" stroke="black" d="M794.62,-473.77C786.99,-470.01 770.69,-462.46 756,-459 665.25,-437.64 639.38,-453.6 547,-441 469.08,-430.38 379.38,-412.38 326.31,-401.12"/>
<polygon fill="black" stroke="black" points="327.03,-397.69 316.52,-399.03 325.57,-404.54 327.03,-397.69"/>
<text text-anchor="start" x="547" y="-430.8" font-family="Courier,monospace" font-size="14.00"> </text>
<text text-anchor="start" x="556" y="-430.8" font-family="Courier,monospace" font-size="10.00">[gControlPilotWireMeasureUnknownState]</text>
<text text-anchor="start" x="785" y="-430.8" font-family="Courier,monospace" font-size="14.00"> </text>
</g>
<!-- node4 -->
<g id="node4" class="node">
<title>node4</title>
<path fill="#e0e0e0" stroke="#000000" d="M213,-408C213,-408 155,-408 155,-408 149,-408 143,-402 143,-396 143,-396 143,-384 143,-384 143,-378 149,-372 155,-372 155,-372 213,-372 213,-372 219,-372 225,-378 225,-384 225,-384 225,-396 225,-396 225,-402 219,-408 213,-408"/>
<text text-anchor="middle" x="184" y="-386.3" font-family="Arial" font-size="14.00">UnknownA</text>
</g>
<!-- node2&#45;&gt;node4 -->
<g id="edge4" class="edge">
<title>node2&#45;&gt;node4</title>
<path fill="none" stroke="black" d="M794.64,-473.69C787.04,-469.81 770.77,-462.1 756,-459 650.88,-436.94 376.39,-470.12 273,-441 252.71,-435.28 232.05,-424.08 215.76,-413.73"/>
<polygon fill="black" stroke="black" points="217.46,-410.66 207.18,-408.1 213.62,-416.51 217.46,-410.66"/>
<text text-anchor="start" x="273" y="-430.8" font-family="Courier,monospace" font-size="14.00"> </text>
<text text-anchor="start" x="282" y="-430.8" font-family="Courier,monospace" font-size="10.00">[gControlPilotWireMeasureA]</text>
<text text-anchor="start" x="445" y="-430.8" font-family="Courier,monospace" font-size="14.00"> </text>
</g>
<!-- node5 -->
<g id="node5" class="node">
<title>node5</title>
<path fill="#e0e0e0" stroke="#000000" d="M997,-321C997,-321 939,-321 939,-321 933,-321 927,-315 927,-309 927,-309 927,-297 927,-297 927,-291 933,-285 939,-285 939,-285 997,-285 997,-285 1003,-285 1009,-291 1009,-297 1009,-297 1009,-309 1009,-309 1009,-315 1003,-321 997,-321"/>
<text text-anchor="middle" x="968" y="-299.3" font-family="Arial" font-size="14.00">UnknownB</text>
</g>
<!-- node2&#45;&gt;node5 -->
<g id="edge5" class="edge">
<title>node2&#45;&gt;node5</title>
<path fill="none" stroke="black" d="M798.84,-471.36C798.3,-453.34 797.22,-388.11 809,-372 815.91,-362.54 873.48,-339.35 917.38,-322.68"/>
<polygon fill="black" stroke="black" points="918.67,-325.93 926.79,-319.12 916.2,-319.38 918.67,-325.93"/>
<text text-anchor="start" x="809" y="-387.3" font-family="Courier,monospace" font-size="14.00"> </text>
<text text-anchor="start" x="818" y="-387.3" font-family="Courier,monospace" font-size="10.00">[gControlPilotWireMeasureB]</text>
<text text-anchor="start" x="981" y="-387.3" font-family="Courier,monospace" font-size="14.00"> </text>
</g>
<!-- node6 -->
<g id="node6" class="node">
<title>node6</title>
<path fill="#e0e0e0" stroke="#000000" d="M433.5,-147C433.5,-147 374.5,-147 374.5,-147 368.5,-147 362.5,-141 362.5,-135 362.5,-135 362.5,-123 362.5,-123 362.5,-117 368.5,-111 374.5,-111 374.5,-111 433.5,-111 433.5,-111 439.5,-111 445.5,-117 445.5,-123 445.5,-123 445.5,-135 445.5,-135 445.5,-141 439.5,-147 433.5,-147"/>
<text text-anchor="middle" x="404" y="-125.3" font-family="Arial" font-size="14.00">UnknownC</text>
</g>
<!-- node2&#45;&gt;node6 -->
<g id="edge6" class="edge">
<title>node2&#45;&gt;node6</title>
<path fill="none" stroke="black" d="M794.64,-473.69C787.04,-469.8 770.77,-462.08 756,-459 527.87,-411.47 461.28,-482.62 232,-441 133.73,-423.16 81.51,-412.73 42,-321 31.16,-295.84 33.34,-215.47 49,-198 88.64,-153.79 263.69,-137.78 352.27,-132.44"/>
<polygon fill="black" stroke="black" points="352.6,-135.93 362.38,-131.86 352.19,-128.94 352.6,-135.93"/>
<text text-anchor="start" x="42" y="-300.3" font-family="Courier,monospace" font-size="14.00"> </text>
<text text-anchor="start" x="51" y="-300.3" font-family="Courier,monospace" font-size="10.00">[gControlPilotWireMeasureC]</text>
<text text-anchor="start" x="214" y="-300.3" font-family="Courier,monospace" font-size="14.00"> </text>
</g>
<!-- node7 -->
<g id="node7" class="node">
<title>node7</title>
<path fill="#e0e0e0" stroke="#000000" d="M1069.5,-408C1069.5,-408 1010.5,-408 1010.5,-408 1004.5,-408 998.5,-402 998.5,-396 998.5,-396 998.5,-384 998.5,-384 998.5,-378 1004.5,-372 1010.5,-372 1010.5,-372 1069.5,-372 1069.5,-372 1075.5,-372 1081.5,-378 1081.5,-384 1081.5,-384 1081.5,-396 1081.5,-396 1081.5,-402 1075.5,-408 1069.5,-408"/>
<text text-anchor="middle" x="1040" y="-386.3" font-family="Arial" font-size="14.00">UnknownD</text>
</g>
<!-- node2&#45;&gt;node7 -->
<g id="edge7" class="edge">
<title>node2&#45;&gt;node7</title>
<path fill="none" stroke="black" d="M800.32,-471.74C803.63,-461.79 813.35,-437.05 831,-426 889.04,-389.67 916.98,-422 984,-408 985.46,-407.69 986.94,-407.37 988.43,-407.03"/>
<polygon fill="black" stroke="black" points="989.47,-410.37 998.32,-404.54 987.76,-403.58 989.47,-410.37"/>
<text text-anchor="start" x="831" y="-430.8" font-family="Courier,monospace" font-size="14.00"> </text>
<text text-anchor="start" x="840" y="-430.8" font-family="Courier,monospace" font-size="10.00">[gControlPilotWireMeasureD]</text>
<text text-anchor="start" x="1003" y="-430.8" font-family="Courier,monospace" font-size="14.00"> </text>
</g>
<!-- node8 -->
<g id="node8" class="node">
<title>node8</title>
<path fill="#e0e0e0" stroke="#000000" d="M1170,-408C1170,-408 1112,-408 1112,-408 1106,-408 1100,-402 1100,-396 1100,-396 1100,-384 1100,-384 1100,-378 1106,-372 1112,-372 1112,-372 1170,-372 1170,-372 1176,-372 1182,-378 1182,-384 1182,-384 1182,-396 1182,-396 1182,-402 1176,-408 1170,-408"/>
<text text-anchor="middle" x="1141" y="-386.3" font-family="Arial" font-size="14.00">UnknownE</text>
</g>
<!-- node2&#45;&gt;node8 -->
<g id="edge8" class="edge">
<title>node2&#45;&gt;node8</title>
<path fill="none" stroke="black" d="M804.47,-475.88C829.29,-475.2 933.46,-470.63 1012,-441 1023.77,-436.56 1024.61,-431.33 1036,-426 1056.84,-416.25 1064.88,-416.05 1090.12,-408.18"/>
<polygon fill="black" stroke="black" points="1091.37,-411.45 1099.81,-405.05 1089.22,-404.79 1091.37,-411.45"/>
<text text-anchor="start" x="1036" y="-430.8" font-family="Courier,monospace" font-size="14.00"> </text>
<text text-anchor="start" x="1045" y="-430.8" font-family="Courier,monospace" font-size="10.00">[gControlPilotWireMeasureE]</text>
<text text-anchor="start" x="1208" y="-430.8" font-family="Courier,monospace" font-size="14.00"> </text>
</g>
<!-- node9 -->
<g id="node9" class="node">
<title>node9</title>
<path fill="#e0e0e0" stroke="#000000" d="M1269.5,-408C1269.5,-408 1212.5,-408 1212.5,-408 1206.5,-408 1200.5,-402 1200.5,-396 1200.5,-396 1200.5,-384 1200.5,-384 1200.5,-378 1206.5,-372 1212.5,-372 1212.5,-372 1269.5,-372 1269.5,-372 1275.5,-372 1281.5,-378 1281.5,-384 1281.5,-384 1281.5,-396 1281.5,-396 1281.5,-402 1275.5,-408 1269.5,-408"/>
<text text-anchor="middle" x="1241" y="-386.3" font-family="Arial" font-size="14.00">UnknownF</text>
</g>
<!-- node2&#45;&gt;node9 -->
<g id="edge9" class="edge">
<title>node2&#45;&gt;node9</title>
<path fill="none" stroke="black" d="M804.38,-475.87C850.7,-474.71 1181.32,-465.59 1217,-441 1224.95,-435.52 1230.35,-426.66 1233.99,-417.92"/>
<polygon fill="black" stroke="black" points="1237.36,-418.87 1237.38,-408.27 1230.76,-416.54 1237.36,-418.87"/>
<text text-anchor="start" x="1229" y="-430.8" font-family="Courier,monospace" font-size="14.00"> </text>
<text text-anchor="start" x="1238" y="-430.8" font-family="Courier,monospace" font-size="10.00">[gControlPilotWireMeasureF]</text>
<text text-anchor="start" x="1401" y="-430.8" font-family="Courier,monospace" font-size="14.00"> </text>
</g>
<!-- node3&#45;&gt;node3 -->
<g id="edge21" class="edge">
<title>node3&#45;&gt;node3</title>
<path fill="none" stroke="black" d="M316.68,-397.83C326.78,-397.45 334.5,-394.84 334.5,-390 334.5,-386.98 331.48,-384.82 326.76,-383.54"/>
<polygon fill="black" stroke="black" points="327.06,-380.05 316.68,-382.17 326.12,-386.99 327.06,-380.05"/>
<text text-anchor="start" x="334.5" y="-387.3" font-family="Courier,monospace" font-size="14.00"> </text>
<text text-anchor="start" x="343.5" y="-387.3" font-family="Courier,monospace" font-weight="bold" font-size="10.00">evControlPilotObserver_Measure</text>
<text text-anchor="start" x="524.5" y="-387.3" font-family="Courier,monospace" font-size="10.00">[gControlPilotWireMeasureUnknownState]</text>
<text text-anchor="start" x="753.5" y="-387.3" font-family="Courier,monospace" font-size="14.00"> </text>
</g>
<!-- node3&#45;&gt;node5 -->
<g id="edge22" class="edge">
<title>node3&#45;&gt;node5</title>
<path fill="none" stroke="black" d="M316.73,-373.69C347.05,-361.84 391.53,-346.26 432,-339 642.56,-301.21 702.11,-356.9 913,-321 914.27,-320.78 915.56,-320.54 916.85,-320.29"/>
<polygon fill="black" stroke="black" points="917.88,-323.64 926.84,-317.99 916.31,-316.82 917.88,-323.64"/>
<text text-anchor="start" x="432" y="-343.8" font-family="Courier,monospace" font-size="14.00"> </text>
<text text-anchor="start" x="441" y="-343.8" font-family="Courier,monospace" font-weight="bold" font-size="10.00">evControlPilotObserver_Measure</text>
<text text-anchor="start" x="622" y="-343.8" font-family="Courier,monospace" font-size="10.00">[gControlPilotWireMeasureB]</text>
<text text-anchor="start" x="785" y="-343.8" font-family="Courier,monospace" font-size="14.00"> </text>
</g>
<!-- node3&#45;&gt;node6 -->
<g id="edge23" class="edge">
<title>node3&#45;&gt;node6</title>
<path fill="none" stroke="black" d="M274.06,-371.75C263.24,-338.84 242.86,-268.86 259,-252 291.08,-218.51 643.92,-267.49 676,-234 687.07,-222.44 686.53,-210.05 676,-198 656.38,-175.54 571.97,-187.09 543,-180 512.72,-172.59 479.85,-160.94 453.68,-150.75"/>
<polygon fill="black" stroke="black" points="454.95,-147.49 444.36,-147.08 452.38,-154 454.95,-147.49"/>
<text text-anchor="start" x="259" y="-256.8" font-family="Courier,monospace" font-size="14.00"> </text>
<text text-anchor="start" x="268" y="-256.8" font-family="Courier,monospace" font-weight="bold" font-size="10.00">evControlPilotObserver_Measure</text>
<text text-anchor="start" x="449" y="-256.8" font-family="Courier,monospace" font-size="10.00">[gControlPilotWireMeasureC]</text>
<text text-anchor="start" x="612" y="-256.8" font-family="Courier,monospace" font-size="14.00"> </text>
</g>
<!-- node5&#45;&gt;node5 -->
<g id="edge11" class="edge">
<title>node5&#45;&gt;node5</title>
<path fill="none" stroke="black" d="M1009.08,-310.77C1019.34,-310.22 1027,-307.63 1027,-303 1027,-300.1 1024.01,-298.01 1019.26,-296.71"/>
<polygon fill="black" stroke="black" points="1019.48,-293.2 1009.08,-295.23 1018.48,-300.13 1019.48,-293.2"/>
<text text-anchor="start" x="1027" y="-300.3" font-family="Courier,monospace" font-size="14.00"> </text>
<text text-anchor="start" x="1036" y="-300.3" font-family="Courier,monospace" font-weight="bold" font-size="10.00">evControlPilotObserver_Measure</text>
<text text-anchor="start" x="1217" y="-300.3" font-family="Courier,monospace" font-size="10.00">[gControlPilotObserverMeasure_B_ButNotLongEnough]</text>
<text text-anchor="start" x="1512" y="-300.3" font-family="Courier,monospace" font-style="italic" font-size="10.00">/doIncrementSampleCtr();</text>
<text text-anchor="start" x="1657" y="-300.3" font-family="Courier,monospace" font-size="10.00"> </text>
<text text-anchor="start" x="1664" y="-300.3" font-family="Courier,monospace" font-size="14.00"> </text>
</g>
<!-- node11 -->
<g id="node11" class="node">
<title>node11</title>
<path fill="#e0e0e0" stroke="#000000" d="M752,-234C752,-234 722,-234 722,-234 716,-234 710,-228 710,-222 710,-222 710,-210 710,-210 710,-204 716,-198 722,-198 722,-198 752,-198 752,-198 758,-198 764,-204 764,-210 764,-210 764,-222 764,-222 764,-228 758,-234 752,-234"/>
<text text-anchor="middle" x="737" y="-212.3" font-family="Arial" font-size="14.00">B</text>
</g>
<!-- node5&#45;&gt;node11 -->
<g id="edge12" class="edge">
<title>node5&#45;&gt;node11</title>
<path fill="none" stroke="black" d="M926.8,-288.22C922.18,-286.99 917.51,-285.88 913,-285 889.69,-280.47 716.07,-284.49 700,-267 692.71,-259.07 696.72,-249.72 704.33,-241.27"/>
<polygon fill="black" stroke="black" points="706.98,-243.59 711.76,-234.13 702.12,-238.54 706.98,-243.59"/>
<text text-anchor="start" x="700" y="-256.8" font-family="Courier,monospace" font-size="14.00"> </text>
<text text-anchor="start" x="709" y="-256.8" font-family="Courier,monospace" font-weight="bold" font-size="10.00">evControlPilotObserver_Measure</text>
<text text-anchor="start" x="890" y="-256.8" font-family="Courier,monospace" font-size="10.00">[gControlPilotObserverMeasure_B_LongEnough]</text>
<text text-anchor="start" x="1149" y="-256.8" font-family="Courier,monospace" font-size="14.00"> </text>
</g>
<!-- node6&#45;&gt;node6 -->
<g id="edge16" class="edge">
<title>node6&#45;&gt;node6</title>
<path fill="none" stroke="black" d="M445.71,-136.75C455.91,-136.18 463.5,-133.59 463.5,-129 463.5,-126.13 460.53,-124.04 455.82,-122.74"/>
<polygon fill="black" stroke="black" points="456.11,-119.25 445.71,-121.25 455.09,-126.17 456.11,-119.25"/>
<text text-anchor="start" x="463.5" y="-126.3" font-family="Courier,monospace" font-size="14.00"> </text>
<text text-anchor="start" x="472.5" y="-126.3" font-family="Courier,monospace" font-weight="bold" font-size="10.00">evControlPilotObserver_Measure</text>
<text text-anchor="start" x="653.5" y="-126.3" font-family="Courier,monospace" font-size="10.00">[gControlPilotObserverMeasure_C_ButNotLongEnough]</text>
<text text-anchor="start" x="948.5" y="-126.3" font-family="Courier,monospace" font-style="italic" font-size="10.00">/doIncrementSampleCtr();</text>
<text text-anchor="start" x="1093.5" y="-126.3" font-family="Courier,monospace" font-size="10.00"> </text>
<text text-anchor="start" x="1100.5" y="-126.3" font-family="Courier,monospace" font-size="14.00"> </text>
</g>
<!-- node12 -->
<g id="node12" class="node">
<title>node12</title>
<path fill="#e0e0e0" stroke="#000000" d="M419,-60C419,-60 389,-60 389,-60 383,-60 377,-54 377,-48 377,-48 377,-36 377,-36 377,-30 383,-24 389,-24 389,-24 419,-24 419,-24 425,-24 431,-30 431,-36 431,-36 431,-48 431,-48 431,-54 425,-60 419,-60"/>
<text text-anchor="middle" x="404" y="-38.3" font-family="Arial" font-size="14.00">C</text>
</g>
<!-- node6&#45;&gt;node12 -->
<g id="edge17" class="edge">
<title>node6&#45;&gt;node12</title>
<path fill="none" stroke="black" d="M404,-110.8C404,-99.16 404,-83.55 404,-70.24"/>
<polygon fill="black" stroke="black" points="407.5,-70.18 404,-60.18 400.5,-70.18 407.5,-70.18"/>
<text text-anchor="start" x="404" y="-82.8" font-family="Courier,monospace" font-size="14.00"> </text>
<text text-anchor="start" x="413" y="-82.8" font-family="Courier,monospace" font-weight="bold" font-size="10.00">evControlPilotObserver_Measure</text>
<text text-anchor="start" x="594" y="-82.8" font-family="Courier,monospace" font-size="10.00">[gControlPilotObserverMeasure_C_LongEnough]</text>
<text text-anchor="start" x="853" y="-82.8" font-family="Courier,monospace" font-size="14.00"> </text>
</g>
<!-- node10 -->
<g id="node10" class="node">
<title>node10</title>
<path fill="#e0e0e0" stroke="#000000" d="M735,-495C735,-495 705,-495 705,-495 699,-495 693,-489 693,-483 693,-483 693,-471 693,-471 693,-465 699,-459 705,-459 705,-459 735,-459 735,-459 741,-459 747,-465 747,-471 747,-471 747,-483 747,-483 747,-489 741,-495 735,-495"/>
<text text-anchor="middle" x="720" y="-473.3" font-family="Arial" font-size="14.00">A</text>
</g>
<!-- node11&#45;&gt;node3 -->
<g id="edge15" class="edge">
<title>node11&#45;&gt;node3</title>
<path fill="none" stroke="black" d="M709.92,-232.46C687.83,-244.22 655.42,-259.61 625,-267 590.72,-275.33 335.38,-262.75 308,-285 285.6,-303.2 280.03,-337.26 279.14,-361.44"/>
<polygon fill="black" stroke="black" points="275.64,-361.72 279.02,-371.76 282.64,-361.81 275.64,-361.72"/>
<text text-anchor="start" x="308" y="-300.3" font-family="Courier,monospace" font-size="14.00"> </text>
<text text-anchor="start" x="317" y="-300.3" font-family="Courier,monospace" font-weight="bold" font-size="10.00">evControlPilotObserver_Measure</text>
<text text-anchor="start" x="498" y="-300.3" font-family="Courier,monospace" font-size="10.00">[gControlPilotWireMeasureUnknownState]</text>
<text text-anchor="start" x="727" y="-300.3" font-family="Courier,monospace" font-style="italic" font-size="10.00">/doResetIncrementSampleCtr();</text>
<text text-anchor="start" x="902" y="-300.3" font-family="Courier,monospace" font-size="10.00"> </text>
<text text-anchor="start" x="909" y="-300.3" font-family="Courier,monospace" font-size="14.00"> </text>
</g>
<!-- node11&#45;&gt;node6 -->
<g id="edge14" class="edge">
<title>node11&#45;&gt;node6</title>
<path fill="none" stroke="black" d="M710,-202.65C705.4,-200.89 700.61,-199.25 696,-198 638.41,-182.45 618.91,-200.8 563,-180 551.56,-175.74 551.17,-169.92 540,-165 513.21,-153.2 481.64,-144.77 455.66,-139.14"/>
<polygon fill="black" stroke="black" points="456.14,-135.67 445.63,-137.05 454.7,-142.52 456.14,-135.67"/>
<text text-anchor="start" x="563" y="-169.8" font-family="Courier,monospace" font-size="14.00"> </text>
<text text-anchor="start" x="572" y="-169.8" font-family="Courier,monospace" font-weight="bold" font-size="10.00">evControlPilotObserver_Measure</text>
<text text-anchor="start" x="753" y="-169.8" font-family="Courier,monospace" font-size="10.00">[gControlPilotWireMeasureC]</text>
<text text-anchor="start" x="916" y="-169.8" font-family="Courier,monospace" font-style="italic" font-size="10.00">/doResetIncrementSampleCtr();</text>
<text text-anchor="start" x="1091" y="-169.8" font-family="Courier,monospace" font-size="10.00"> </text>
<text text-anchor="start" x="1098" y="-169.8" font-family="Courier,monospace" font-size="14.00"> </text>
</g>
<!-- node11&#45;&gt;node11 -->
<g id="edge13" class="edge">
<title>node11&#45;&gt;node11</title>
<path fill="none" stroke="black" d="M764.24,-223.87C774.02,-224.04 782,-221.41 782,-216 782,-212.7 779.04,-210.44 774.51,-209.21"/>
<polygon fill="black" stroke="black" points="774.55,-205.7 764.24,-208.13 773.82,-212.66 774.55,-205.7"/>
<text text-anchor="start" x="782" y="-213.3" font-family="Courier,monospace" font-size="14.00"> </text>
<text text-anchor="start" x="791" y="-213.3" font-family="Courier,monospace" font-weight="bold" font-size="10.00">evControlPilotObserver_Measure</text>
<text text-anchor="start" x="972" y="-213.3" font-family="Courier,monospace" font-size="10.00">[gControlPilotWireMeasureB]</text>
<text text-anchor="start" x="1135" y="-213.3" font-family="Courier,monospace" font-size="14.00"> </text>
</g>
<!-- node12&#45;&gt;node3 -->
<g id="edge20" class="edge">
<title>node12&#45;&gt;node3</title>
<path fill="none" stroke="black" d="M376.82,-45.69C309.3,-54.01 134.23,-85.96 62,-198 17.08,-267.68 164.25,-230.82 227,-285 252.73,-307.22 244.22,-323.89 260,-354 261.53,-356.91 263.17,-359.94 264.83,-362.93"/>
<polygon fill="black" stroke="black" points="261.81,-364.71 269.78,-371.69 267.9,-361.26 261.81,-364.71"/>
<text text-anchor="start" x="62" y="-213.3" font-family="Courier,monospace" font-size="14.00"> </text>
<text text-anchor="start" x="71" y="-213.3" font-family="Courier,monospace" font-weight="bold" font-size="10.00">evControlPilotObserver_Measure</text>
<text text-anchor="start" x="252" y="-213.3" font-family="Courier,monospace" font-size="10.00">[gControlPilotWireMeasureUnknownState]</text>
<text text-anchor="start" x="481" y="-213.3" font-family="Courier,monospace" font-style="italic" font-size="10.00">/doResetIncrementSampleCtr();</text>
<text text-anchor="start" x="656" y="-213.3" font-family="Courier,monospace" font-size="10.00"> </text>
<text text-anchor="start" x="663" y="-213.3" font-family="Courier,monospace" font-size="14.00"> </text>
</g>
<!-- node12&#45;&gt;node5 -->
<g id="edge19" class="edge">
<title>node12&#45;&gt;node5</title>
<path fill="none" stroke="black" d="M431.31,-43.88C555.57,-48.09 1063.88,-67.87 1119,-111 1175.28,-155.04 1203.73,-212.08 1158,-267 1140.63,-287.86 1069.28,-296.33 1019.15,-299.74"/>
<polygon fill="black" stroke="black" points="1018.87,-296.25 1009.11,-300.38 1019.31,-303.24 1018.87,-296.25"/>
<text text-anchor="start" x="1174" y="-169.8" font-family="Courier,monospace" font-size="14.00"> </text>
<text text-anchor="start" x="1183" y="-169.8" font-family="Courier,monospace" font-weight="bold" font-size="10.00">evControlPilotObserver_Measure</text>
<text text-anchor="start" x="1364" y="-169.8" font-family="Courier,monospace" font-size="10.00">[gControlPilotWireMeasureB]</text>
<text text-anchor="start" x="1527" y="-169.8" font-family="Courier,monospace" font-style="italic" font-size="10.00">/doResetIncrementSampleCtr();</text>
<text text-anchor="start" x="1702" y="-169.8" font-family="Courier,monospace" font-size="10.00"> </text>
<text text-anchor="start" x="1709" y="-169.8" font-family="Courier,monospace" font-size="14.00"> </text>
</g>
<!-- node12&#45;&gt;node12 -->
<g id="edge18" class="edge">
<title>node12&#45;&gt;node12</title>
<path fill="none" stroke="black" d="M431.24,-49.87C441.02,-50.04 449,-47.41 449,-42 449,-38.7 446.04,-36.44 441.51,-35.21"/>
<polygon fill="black" stroke="black" points="441.55,-31.7 431.24,-34.13 440.82,-38.66 441.55,-31.7"/>
<text text-anchor="start" x="449" y="-39.3" font-family="Courier,monospace" font-size="14.00"> </text>
<text text-anchor="start" x="458" y="-39.3" font-family="Courier,monospace" font-weight="bold" font-size="10.00">evControlPilotObserver_Measure</text>
<text text-anchor="start" x="639" y="-39.3" font-family="Courier,monospace" font-size="10.00">[gControlPilotWireMeasureC]</text>
<text text-anchor="start" x="802" y="-39.3" font-family="Courier,monospace" font-size="14.00"> </text>
</g>
<!-- node13 -->
<g id="node13" class="node">
<title>node13</title>
<path fill="#e0e0e0" stroke="#000000" d="M605,-495C605,-495 575,-495 575,-495 569,-495 563,-489 563,-483 563,-483 563,-471 563,-471 563,-465 569,-459 575,-459 575,-459 605,-459 605,-459 611,-459 617,-465 617,-471 617,-471 617,-483 617,-483 617,-489 611,-495 605,-495"/>
<text text-anchor="middle" x="590" y="-473.3" font-family="Arial" font-size="14.00">D</text>
</g>
<!-- node14 -->
<g id="node14" class="node">
<title>node14</title>
<path fill="#e0e0e0" stroke="#000000" d="M417,-495C417,-495 387,-495 387,-495 381,-495 375,-489 375,-483 375,-483 375,-471 375,-471 375,-465 381,-459 387,-459 387,-459 417,-459 417,-459 423,-459 429,-465 429,-471 429,-471 429,-483 429,-483 429,-489 423,-495 417,-495"/>
<text text-anchor="middle" x="402" y="-473.3" font-family="Arial" font-size="14.00">E</text>
</g>
<!-- node15 -->
<g id="node15" class="node">
<title>node15</title>
<path fill="#e0e0e0" stroke="#000000" d="M113,-495C113,-495 83,-495 83,-495 77,-495 71,-489 71,-483 71,-483 71,-471 71,-471 71,-465 77,-459 83,-459 83,-459 113,-459 113,-459 119,-459 125,-465 125,-471 125,-471 125,-483 125,-483 125,-489 119,-495 113,-495"/>
<text text-anchor="middle" x="98" y="-473.3" font-family="Arial" font-size="14.00">F</text>
</g>
</g>
</svg>
