<?xml version="1.0" encoding="UTF-8" standalone="no"?>
<!DOCTYPE svg PUBLIC "-//W3C//DTD SVG 1.1//EN"
 "http://www.w3.org/Graphics/SVG/1.1/DTD/svg11.dtd">
<!-- Generated by graphviz version 2.43.0 (0)
 -->
<!-- Title: Root Pages: 1 -->
<svg width="1826pt" height="698pt"
 viewBox="0.00 0.00 1826.00 697.80" xmlns="http://www.w3.org/2000/svg" xmlns:xlink="http://www.w3.org/1999/xlink">
<g id="graph0" class="graph" transform="scale(1 1) rotate(0) translate(4 693.8)">
<title>Root</title>
<polygon fill="white" stroke="transparent" points="-4,4 -4,-693.8 1822,-693.8 1822,4 -4,4"/>
<g id="clust1" class="cluster">
<title>cluster0</title>
<path fill="lightgrey" stroke="darkgray" d="M20,-8C20,-8 1677,-8 1677,-8 1683,-8 1689,-14 1689,-20 1689,-20 1689,-669.8 1689,-669.8 1689,-675.8 1683,-681.8 1677,-681.8 1677,-681.8 20,-681.8 20,-681.8 14,-681.8 8,-675.8 8,-669.8 8,-669.8 8,-20 8,-20 8,-14 14,-8 20,-8"/>
<text text-anchor="middle" x="848.5" y="-666.6" font-family="Arial" font-size="14.00">ControlPilotObserver</text>
</g>
<g id="clust2" class="cluster">
<title>cluster1</title>
<path fill="lightgrey" stroke="darkgray" d="M28,-16C28,-16 1669,-16 1669,-16 1675,-16 1681,-22 1681,-28 1681,-28 1681,-514 1681,-514 1681,-520 1675,-526 1669,-526 1669,-526 28,-526 28,-526 22,-526 16,-520 16,-514 16,-514 16,-28 16,-28 16,-22 22,-16 28,-16"/>
<text text-anchor="middle" x="848.5" y="-510.8" font-family="Arial" font-size="14.00">ObserveState</text>
</g>
<!-- node0 -->
<g id="node0" class="node">
<title>node0</title>
<ellipse fill="black" stroke="black" cx="1060" cy="-645.4" rx="5.4" ry="5.4"/>
<text text-anchor="start" x="1031.6" y="-654.4" font-family="Times,serif" font-style="italic" font-size="8.00">Initial</text>
</g>
<!-- node1 -->
<g id="node1" class="node">
<title>node1</title>
<path fill="#e0e0e0" stroke="#000000" d="M1075,-603C1075,-603 1045,-603 1045,-603 1039,-603 1033,-597 1033,-591 1033,-591 1033,-579 1033,-579 1033,-573 1039,-567 1045,-567 1045,-567 1075,-567 1075,-567 1081,-567 1087,-573 1087,-579 1087,-579 1087,-591 1087,-591 1087,-597 1081,-603 1075,-603"/>
<text text-anchor="middle" x="1060" y="-581.3" font-family="Arial" font-size="14.00">Wait</text>
</g>
<!-- node0&#45;&gt;node1 -->
<g id="edge1" class="edge">
<title>node0&#45;&gt;node1</title>
<path fill="none" stroke="black" d="M1060,-639.82C1060,-634.03 1060,-623.6 1060,-613.45"/>
<polygon fill="black" stroke="black" points="1063.5,-613.18 1060,-603.18 1056.5,-613.18 1063.5,-613.18"/>
</g>
<!-- node2 -->
<g id="node2" class="node">
<title>node2</title>
<ellipse fill="black" stroke="black" cx="1060" cy="-477" rx="5.4" ry="5.4"/>
<text text-anchor="start" x="1031.6" y="-486" font-family="Times,serif" font-style="italic" font-size="8.00">Initial</text>
</g>
<!-- node1&#45;&gt;node2 -->
<g id="edge2" class="edge">
<title>node1&#45;&gt;node2</title>
<path fill="none" stroke="black" d="M1032.57,-582.85C1008.76,-580.22 975.57,-572.28 959,-549 955.13,-543.57 954.76,-539.15 959,-534 968.41,-522.58 978.16,-529.24 990.26,-528.46"/>
<polygon fill="black" stroke="black" points="991.16,-531.84 1000,-526 989.45,-525.06 991.16,-531.84"/>
<text text-anchor="start" x="959" y="-538.8" font-family="Courier,monospace" font-size="14.00"> </text>
<text text-anchor="start" x="968" y="-538.8" font-family="Courier,monospace" font-weight="bold" font-size="10.00">evControlPilotObserverStart</text>
<text text-anchor="start" x="1131" y="-538.8" font-family="Courier,monospace" font-size="14.00"> </text>
</g>
<!-- node2&#45;&gt;node1 -->
<g id="edge3" class="edge">
<title>node2&#45;&gt;node1</title>
<path fill="none" stroke="black" d="M1141.5,-526C1145.12,-533.19 1145.29,-540.92 1140,-549 1130.38,-563.71 1113.07,-572.27 1097,-577.24"/>
<polygon fill="black" stroke="black" points="1095.97,-573.9 1087.24,-579.89 1097.8,-580.65 1095.97,-573.9"/>
<text text-anchor="start" x="1144" y="-538.8" font-family="Courier,monospace" font-size="14.00"> </text>
<text text-anchor="start" x="1153" y="-538.8" font-family="Courier,monospace" font-weight="bold" font-size="10.00">evControlPilotObserverStop</text>
<text text-anchor="start" x="1310" y="-538.8" font-family="Courier,monospace" font-size="14.00"> </text>
</g>
<!-- node3 -->
<g id="node3" class="node">
<title>node3</title>
<path fill="#e0e0e0" stroke="#000000" d="M847.5,-408C847.5,-408 798.5,-408 798.5,-408 792.5,-408 786.5,-402 786.5,-396 786.5,-396 786.5,-384 786.5,-384 786.5,-378 792.5,-372 798.5,-372 798.5,-372 847.5,-372 847.5,-372 853.5,-372 859.5,-378 859.5,-384 859.5,-384 859.5,-396 859.5,-396 859.5,-402 853.5,-408 847.5,-408"/>
<text text-anchor="middle" x="823" y="-386.3" font-family="Arial" font-size="14.00">Unknown</text>
</g>
<!-- node2&#45;&gt;node3 -->
<g id="edge10" class="edge">
<title>node2&#45;&gt;node3</title>
<path fill="none" stroke="black" d="M1055.09,-474.28C1044.95,-470.79 1020.86,-462.9 1000,-459 957.88,-451.13 836.85,-472.68 808,-441 802.06,-434.48 802.81,-425.68 806.01,-417.29"/>
<polygon fill="black" stroke="black" points="809.24,-418.65 810.46,-408.13 802.94,-415.6 809.24,-418.65"/>
<text text-anchor="start" x="808" y="-430.8" font-family="Courier,monospace" font-size="14.00"> </text>
<text text-anchor="start" x="817" y="-430.8" font-family="Courier,monospace" font-size="10.00">[gControlPilotWireMeasureUnknownState]</text>
<text text-anchor="start" x="1046" y="-430.8" font-family="Courier,monospace" font-size="14.00"> </text>
</g>
<!-- node4 -->
<g id="node4" class="node">
<title>node4</title>
<path fill="#e0e0e0" stroke="#000000" d="M632,-408C632,-408 574,-408 574,-408 568,-408 562,-402 562,-396 562,-396 562,-384 562,-384 562,-378 568,-372 574,-372 574,-372 632,-372 632,-372 638,-372 644,-378 644,-384 644,-384 644,-396 644,-396 644,-402 638,-408 632,-408"/>
<text text-anchor="middle" x="603" y="-386.3" font-family="Arial" font-size="14.00">UnknownA</text>
</g>
<!-- node2&#45;&gt;node4 -->
<g id="edge4" class="edge">
<title>node2&#45;&gt;node4</title>
<path fill="none" stroke="black" d="M1055.11,-474.2C1044.99,-470.57 1020.94,-462.41 1000,-459 958.06,-452.16 651.48,-467.16 618,-441 610.92,-435.47 607.07,-426.71 605.02,-418.07"/>
<polygon fill="black" stroke="black" points="608.46,-417.44 603.34,-408.17 601.56,-418.61 608.46,-417.44"/>
<text text-anchor="start" x="618" y="-430.8" font-family="Courier,monospace" font-size="14.00"> </text>
<text text-anchor="start" x="627" y="-430.8" font-family="Courier,monospace" font-size="10.00">[gControlPilotWireMeasureA]</text>
<text text-anchor="start" x="790" y="-430.8" font-family="Courier,monospace" font-size="14.00"> </text>
</g>
<!-- node5 -->
<g id="node5" class="node">
<title>node5</title>
<path fill="#e0e0e0" stroke="#000000" d="M94,-321C94,-321 36,-321 36,-321 30,-321 24,-315 24,-309 24,-309 24,-297 24,-297 24,-291 30,-285 36,-285 36,-285 94,-285 94,-285 100,-285 106,-291 106,-297 106,-297 106,-309 106,-309 106,-315 100,-321 94,-321"/>
<text text-anchor="middle" x="65" y="-299.3" font-family="Arial" font-size="14.00">UnknownB</text>
</g>
<!-- node2&#45;&gt;node5 -->
<g id="edge5" class="edge">
<title>node2&#45;&gt;node5</title>
<path fill="none" stroke="black" d="M1055.11,-474.2C1044.99,-470.56 1020.95,-462.4 1000,-459 825.65,-430.74 778.85,-457.51 603,-441 479.58,-429.41 132.03,-448.67 52,-354 46.51,-347.5 46.87,-338.95 49.5,-330.77"/>
<polygon fill="black" stroke="black" points="52.77,-332.04 53.42,-321.46 46.32,-329.32 52.77,-332.04"/>
<text text-anchor="start" x="157" y="-387.3" font-family="Courier,monospace" font-size="14.00"> </text>
<text text-anchor="start" x="166" y="-387.3" font-family="Courier,monospace" font-size="10.00">[gControlPilotWireMeasureB]</text>
<text text-anchor="start" x="329" y="-387.3" font-family="Courier,monospace" font-size="14.00"> </text>
</g>
<!-- node6 -->
<g id="node6" class="node">
<title>node6</title>
<path fill="#e0e0e0" stroke="#000000" d="M996.5,-147C996.5,-147 937.5,-147 937.5,-147 931.5,-147 925.5,-141 925.5,-135 925.5,-135 925.5,-123 925.5,-123 925.5,-117 931.5,-111 937.5,-111 937.5,-111 996.5,-111 996.5,-111 1002.5,-111 1008.5,-117 1008.5,-123 1008.5,-123 1008.5,-135 1008.5,-135 1008.5,-141 1002.5,-147 996.5,-147"/>
<text text-anchor="middle" x="967" y="-125.3" font-family="Arial" font-size="14.00">UnknownC</text>
</g>
<!-- node2&#45;&gt;node6 -->
<g id="edge6" class="edge">
<title>node2&#45;&gt;node6</title>
<path fill="none" stroke="black" d="M1059.73,-471.22C1058.79,-452.66 1056.47,-385.71 1071,-372 1101.66,-343.07 1409.06,-364.08 1450,-354 1541.92,-331.36 1655.2,-344.91 1637,-252 1632.02,-226.57 1633.44,-216.21 1615,-198 1586.46,-169.82 1570.16,-173.68 1531,-165 1434.21,-143.54 1138.71,-134.15 1018.59,-131.15"/>
<polygon fill="black" stroke="black" points="1018.63,-127.65 1008.54,-130.9 1018.45,-134.65 1018.63,-127.65"/>
<text text-anchor="start" x="1637" y="-300.3" font-family="Courier,monospace" font-size="14.00"> </text>
<text text-anchor="start" x="1646" y="-300.3" font-family="Courier,monospace" font-size="10.00">[gControlPilotWireMeasureC]</text>
<text text-anchor="start" x="1809" y="-300.3" font-family="Courier,monospace" font-size="14.00"> </text>
</g>
<!-- node7 -->
<g id="node7" class="node">
<title>node7</title>
<path fill="#e0e0e0" stroke="#000000" d="M1150.5,-408C1150.5,-408 1091.5,-408 1091.5,-408 1085.5,-408 1079.5,-402 1079.5,-396 1079.5,-396 1079.5,-384 1079.5,-384 1079.5,-378 1085.5,-372 1091.5,-372 1091.5,-372 1150.5,-372 1150.5,-372 1156.5,-372 1162.5,-378 1162.5,-384 1162.5,-384 1162.5,-396 1162.5,-396 1162.5,-402 1156.5,-408 1150.5,-408"/>
<text text-anchor="middle" x="1121" y="-386.3" font-family="Arial" font-size="14.00">UnknownD</text>
</g>
<!-- node2&#45;&gt;node7 -->
<g id="edge7" class="edge">
<title>node2&#45;&gt;node7</title>
<path fill="none" stroke="black" d="M1061.63,-471.58C1065.08,-462.51 1073.77,-441.35 1085,-426 1087.68,-422.34 1090.75,-418.72 1093.96,-415.28"/>
<polygon fill="black" stroke="black" points="1096.53,-417.65 1101.06,-408.08 1091.55,-412.74 1096.53,-417.65"/>
<text text-anchor="start" x="1085" y="-430.8" font-family="Courier,monospace" font-size="14.00"> </text>
<text text-anchor="start" x="1094" y="-430.8" font-family="Courier,monospace" font-size="10.00">[gControlPilotWireMeasureD]</text>
<text text-anchor="start" x="1257" y="-430.8" font-family="Courier,monospace" font-size="14.00"> </text>
</g>
<!-- node8 -->
<g id="node8" class="node">
<title>node8</title>
<path fill="#e0e0e0" stroke="#000000" d="M1317,-408C1317,-408 1259,-408 1259,-408 1253,-408 1247,-402 1247,-396 1247,-396 1247,-384 1247,-384 1247,-378 1253,-372 1259,-372 1259,-372 1317,-372 1317,-372 1323,-372 1329,-378 1329,-384 1329,-384 1329,-396 1329,-396 1329,-402 1323,-408 1317,-408"/>
<text text-anchor="middle" x="1288" y="-386.3" font-family="Arial" font-size="14.00">UnknownE</text>
</g>
<!-- node2&#45;&gt;node8 -->
<g id="edge8" class="edge">
<title>node2&#45;&gt;node8</title>
<path fill="none" stroke="black" d="M1065.3,-475.77C1094.25,-474.39 1233.24,-466.54 1266,-441 1273.31,-435.3 1278.25,-426.66 1281.55,-418.16"/>
<polygon fill="black" stroke="black" points="1284.95,-419.02 1284.73,-408.43 1278.3,-416.85 1284.95,-419.02"/>
<text text-anchor="start" x="1277" y="-430.8" font-family="Courier,monospace" font-size="14.00"> </text>
<text text-anchor="start" x="1286" y="-430.8" font-family="Courier,monospace" font-size="10.00">[gControlPilotWireMeasureE]</text>
<text text-anchor="start" x="1449" y="-430.8" font-family="Courier,monospace" font-size="14.00"> </text>
</g>
<!-- node9 -->
<g id="node9" class="node">
<title>node9</title>
<path fill="#e0e0e0" stroke="#000000" d="M1520.5,-408C1520.5,-408 1463.5,-408 1463.5,-408 1457.5,-408 1451.5,-402 1451.5,-396 1451.5,-396 1451.5,-384 1451.5,-384 1451.5,-378 1457.5,-372 1463.5,-372 1463.5,-372 1520.5,-372 1520.5,-372 1526.5,-372 1532.5,-378 1532.5,-384 1532.5,-384 1532.5,-396 1532.5,-396 1532.5,-402 1526.5,-408 1520.5,-408"/>
<text text-anchor="middle" x="1492" y="-386.3" font-family="Arial" font-size="14.00">UnknownF</text>
</g>
<!-- node2&#45;&gt;node9 -->
<g id="edge9" class="edge">
<title>node2&#45;&gt;node9</title>
<path fill="none" stroke="black" d="M1065.44,-475.82C1110.9,-474.31 1426.73,-463.05 1462,-441 1470.79,-435.5 1477.35,-426.4 1482.06,-417.46"/>
<polygon fill="black" stroke="black" points="1485.25,-418.9 1486.31,-408.36 1478.9,-415.94 1485.25,-418.9"/>
<text text-anchor="start" x="1476" y="-430.8" font-family="Courier,monospace" font-size="14.00"> </text>
<text text-anchor="start" x="1485" y="-430.8" font-family="Courier,monospace" font-size="10.00">[gControlPilotWireMeasureF]</text>
<text text-anchor="start" x="1648" y="-430.8" font-family="Courier,monospace" font-size="14.00"> </text>
</g>
<!-- node3&#45;&gt;node5 -->
<g id="edge22" class="edge">
<title>node3&#45;&gt;node5</title>
<path fill="none" stroke="black" d="M786.25,-384.58C751.86,-380.63 699.03,-375 653,-372 620.28,-369.87 85.83,-377.54 63,-354 57.15,-347.97 56.01,-339.36 56.85,-330.99"/>
<polygon fill="black" stroke="black" points="60.3,-331.54 58.67,-321.07 53.42,-330.27 60.3,-331.54"/>
<text text-anchor="start" x="63" y="-343.8" font-family="Courier,monospace" font-size="14.00"> </text>
<text text-anchor="start" x="72" y="-343.8" font-family="Courier,monospace" font-size="10.00">[gControlPilotWireMeasureB]</text>
<text text-anchor="start" x="235" y="-343.8" font-family="Courier,monospace" font-size="14.00"> </text>
</g>
<!-- node3&#45;&gt;node6 -->
<g id="edge23" class="edge">
<title>node3&#45;&gt;node6</title>
<path fill="none" stroke="black" d="M859.55,-386.02C905.24,-382.37 985.86,-376.15 1055,-372 1076.37,-370.72 1424.06,-368.29 1440,-354 1474.16,-323.37 1422.96,-283.84 1456,-252 1504.67,-205.1 1562.13,-284.54 1607,-234 1617.62,-222.04 1617.7,-209.9 1607,-198 1567.87,-154.49 1164.27,-136.66 1018.86,-131.61"/>
<polygon fill="black" stroke="black" points="1018.96,-128.11 1008.84,-131.27 1018.72,-135.11 1018.96,-128.11"/>
<text text-anchor="start" x="1456" y="-256.8" font-family="Courier,monospace" font-size="14.00"> </text>
<text text-anchor="start" x="1465" y="-256.8" font-family="Courier,monospace" font-size="10.00">[gControlPilotWireMeasureC]</text>
<text text-anchor="start" x="1628" y="-256.8" font-family="Courier,monospace" font-size="14.00"> </text>
</g>
<!-- node5&#45;&gt;node3 -->
<g id="edge13" class="edge">
<title>node5&#45;&gt;node3</title>
<path fill="none" stroke="black" d="M106.27,-307.29C144.22,-311.37 201.5,-320.24 248,-339 259.32,-343.57 259.39,-350.25 271,-354 351.87,-380.13 568.25,-365.77 653,-372 694.69,-375.06 741.99,-379.91 776.1,-383.64"/>
<polygon fill="black" stroke="black" points="775.91,-387.14 786.24,-384.76 776.68,-380.18 775.91,-387.14"/>
<text text-anchor="start" x="271" y="-343.8" font-family="Courier,monospace" font-size="14.00"> </text>
<text text-anchor="start" x="280" y="-343.8" font-family="Courier,monospace" font-weight="bold" font-size="10.00">evControlPilotObserver_Measure</text>
<text text-anchor="start" x="461" y="-343.8" font-family="Courier,monospace" font-size="10.00">[gNotControlPilotWireMeasureB]</text>
<text text-anchor="start" x="642" y="-343.8" font-family="Courier,monospace" font-style="italic" font-size="10.00">/doResetIncrementSampleCtr();</text>
<text text-anchor="start" x="817" y="-343.8" font-family="Courier,monospace" font-size="10.00"> </text>
<text text-anchor="start" x="824" y="-343.8" font-family="Courier,monospace" font-size="14.00"> </text>
</g>
<!-- node5&#45;&gt;node5 -->
<g id="edge11" class="edge">
<title>node5&#45;&gt;node5</title>
<path fill="none" stroke="black" d="M106.08,-310.77C116.34,-310.22 124,-307.63 124,-303 124,-300.1 121.01,-298.01 116.26,-296.71"/>
<polygon fill="black" stroke="black" points="116.48,-293.2 106.08,-295.23 115.48,-300.13 116.48,-293.2"/>
<text text-anchor="start" x="124" y="-300.3" font-family="Courier,monospace" font-size="14.00"> </text>
<text text-anchor="start" x="133" y="-300.3" font-family="Courier,monospace" font-weight="bold" font-size="10.00">evControlPilotObserver_Measure</text>
<text text-anchor="start" x="314" y="-300.3" font-family="Courier,monospace" font-size="10.00">[gControlPilotObserverMeasure_B_ButNotLongEnough]</text>
<text text-anchor="start" x="609" y="-300.3" font-family="Courier,monospace" font-style="italic" font-size="10.00">/doIncrementSampleCtr();</text>
<text text-anchor="start" x="754" y="-300.3" font-family="Courier,monospace" font-size="10.00"> </text>
<text text-anchor="start" x="761" y="-300.3" font-family="Courier,monospace" font-size="14.00"> </text>
</g>
<!-- node11 -->
<g id="node11" class="node">
<title>node11</title>
<path fill="#e0e0e0" stroke="#000000" d="M565,-234C565,-234 535,-234 535,-234 529,-234 523,-228 523,-222 523,-222 523,-210 523,-210 523,-204 529,-198 535,-198 535,-198 565,-198 565,-198 571,-198 577,-204 577,-210 577,-210 577,-222 577,-222 577,-228 571,-234 565,-234"/>
<text text-anchor="middle" x="550" y="-212.3" font-family="Arial" font-size="14.00">B</text>
</g>
<!-- node5&#45;&gt;node11 -->
<g id="edge12" class="edge">
<title>node5&#45;&gt;node11</title>
<path fill="none" stroke="black" d="M106.42,-294.41C160.72,-284.49 258.94,-266.66 343,-252 402.41,-241.63 471.51,-230.05 512.94,-223.15"/>
<polygon fill="black" stroke="black" points="513.57,-226.59 522.86,-221.5 512.42,-219.68 513.57,-226.59"/>
<text text-anchor="start" x="343" y="-256.8" font-family="Courier,monospace" font-size="14.00"> </text>
<text text-anchor="start" x="352" y="-256.8" font-family="Courier,monospace" font-weight="bold" font-size="10.00">evControlPilotObserver_Measure</text>
<text text-anchor="start" x="533" y="-256.8" font-family="Courier,monospace" font-size="10.00">[gControlPilotObserverMeasure_B_LongEnough]</text>
<text text-anchor="start" x="792" y="-256.8" font-family="Courier,monospace" font-size="14.00"> </text>
</g>
<!-- node6&#45;&gt;node6 -->
<g id="edge17" class="edge">
<title>node6&#45;&gt;node6</title>
<path fill="none" stroke="black" d="M1008.71,-136.75C1018.91,-136.18 1026.5,-133.59 1026.5,-129 1026.5,-126.13 1023.53,-124.04 1018.82,-122.74"/>
<polygon fill="black" stroke="black" points="1019.11,-119.25 1008.71,-121.25 1018.09,-126.17 1019.11,-119.25"/>
<text text-anchor="start" x="1026.5" y="-126.3" font-family="Courier,monospace" font-size="14.00"> </text>
<text text-anchor="start" x="1035.5" y="-126.3" font-family="Courier,monospace" font-weight="bold" font-size="10.00">evControlPilotObserver_Measure</text>
<text text-anchor="start" x="1216.5" y="-126.3" font-family="Courier,monospace" font-size="10.00">[gControlPilotObserverMeasure_C_ButNotLongEnough]</text>
<text text-anchor="start" x="1511.5" y="-126.3" font-family="Courier,monospace" font-style="italic" font-size="10.00">/doIncrementSampleCtr();</text>
<text text-anchor="start" x="1656.5" y="-126.3" font-family="Courier,monospace" font-size="10.00"> </text>
<text text-anchor="start" x="1663.5" y="-126.3" font-family="Courier,monospace" font-size="14.00"> </text>
</g>
<!-- node12 -->
<g id="node12" class="node">
<title>node12</title>
<path fill="#e0e0e0" stroke="#000000" d="M921,-60C921,-60 891,-60 891,-60 885,-60 879,-54 879,-48 879,-48 879,-36 879,-36 879,-30 885,-24 891,-24 891,-24 921,-24 921,-24 927,-24 933,-30 933,-36 933,-36 933,-48 933,-48 933,-54 927,-60 921,-60"/>
<text text-anchor="middle" x="906" y="-38.3" font-family="Arial" font-size="14.00">C</text>
</g>
<!-- node6&#45;&gt;node12 -->
<g id="edge18" class="edge">
<title>node6&#45;&gt;node12</title>
<path fill="none" stroke="black" d="M954.66,-110.8C945.97,-98.7 934.21,-82.3 924.42,-68.67"/>
<polygon fill="black" stroke="black" points="927,-66.26 918.33,-60.18 921.31,-70.34 927,-66.26"/>
<text text-anchor="start" x="940" y="-82.8" font-family="Courier,monospace" font-size="14.00"> </text>
<text text-anchor="start" x="949" y="-82.8" font-family="Courier,monospace" font-weight="bold" font-size="10.00">evControlPilotObserver_Measure</text>
<text text-anchor="start" x="1130" y="-82.8" font-family="Courier,monospace" font-size="10.00">[gControlPilotObserverMeasure_C_LongEnough]</text>
<text text-anchor="start" x="1389" y="-82.8" font-family="Courier,monospace" font-size="14.00"> </text>
</g>
<!-- node10 -->
<g id="node10" class="node">
<title>node10</title>
<path fill="#e0e0e0" stroke="#000000" d="M979,-495C979,-495 949,-495 949,-495 943,-495 937,-489 937,-483 937,-483 937,-471 937,-471 937,-465 943,-459 949,-459 949,-459 979,-459 979,-459 985,-459 991,-465 991,-471 991,-471 991,-483 991,-483 991,-489 985,-495 979,-495"/>
<text text-anchor="middle" x="964" y="-473.3" font-family="Arial" font-size="14.00">A</text>
</g>
<!-- node11&#45;&gt;node3 -->
<g id="edge16" class="edge">
<title>node11&#45;&gt;node3</title>
<path fill="none" stroke="black" d="M577.33,-217.14C635.35,-218.02 768.18,-223.2 801,-252 824.91,-272.98 806.25,-292.32 820,-321 824.27,-329.9 829.96,-329.61 833,-339 835.05,-345.34 833.92,-347.4 833,-354 832.64,-356.57 832.14,-359.22 831.55,-361.86"/>
<polygon fill="black" stroke="black" points="828.1,-361.2 828.96,-371.76 834.87,-362.97 828.1,-361.2"/>
<text text-anchor="start" x="820" y="-300.3" font-family="Courier,monospace" font-size="14.00"> </text>
<text text-anchor="start" x="829" y="-300.3" font-family="Courier,monospace" font-weight="bold" font-size="10.00">evControlPilotObserver_Measure</text>
<text text-anchor="start" x="1010" y="-300.3" font-family="Courier,monospace" font-size="10.00">[gControlPilotWireMeasureUnknownState]</text>
<text text-anchor="start" x="1239" y="-300.3" font-family="Courier,monospace" font-style="italic" font-size="10.00">/doResetIncrementSampleCtr();</text>
<text text-anchor="start" x="1414" y="-300.3" font-family="Courier,monospace" font-size="10.00"> </text>
<text text-anchor="start" x="1421" y="-300.3" font-family="Courier,monospace" font-size="14.00"> </text>
</g>
<!-- node11&#45;&gt;node6 -->
<g id="edge15" class="edge">
<title>node11&#45;&gt;node6</title>
<path fill="none" stroke="black" d="M577.04,-209.49C645.42,-195.55 826.16,-158.71 915.5,-140.5"/>
<polygon fill="black" stroke="black" points="916.32,-143.9 925.42,-138.48 914.92,-137.04 916.32,-143.9"/>
<text text-anchor="start" x="783" y="-169.8" font-family="Courier,monospace" font-size="14.00"> </text>
<text text-anchor="start" x="792" y="-169.8" font-family="Courier,monospace" font-weight="bold" font-size="10.00">evControlPilotObserver_Measure</text>
<text text-anchor="start" x="973" y="-169.8" font-family="Courier,monospace" font-size="10.00">[gControlPilotWireMeasureC]</text>
<text text-anchor="start" x="1136" y="-169.8" font-family="Courier,monospace" font-style="italic" font-size="10.00">/doResetIncrementSampleCtr();</text>
<text text-anchor="start" x="1311" y="-169.8" font-family="Courier,monospace" font-size="10.00"> </text>
<text text-anchor="start" x="1318" y="-169.8" font-family="Courier,monospace" font-size="14.00"> </text>
</g>
<!-- node11&#45;&gt;node11 -->
<g id="edge14" class="edge">
<title>node11&#45;&gt;node11</title>
<path fill="none" stroke="black" d="M577.24,-223.87C587.02,-224.04 595,-221.41 595,-216 595,-212.7 592.04,-210.44 587.51,-209.21"/>
<polygon fill="black" stroke="black" points="587.55,-205.7 577.24,-208.13 586.82,-212.66 587.55,-205.7"/>
<text text-anchor="start" x="595" y="-213.3" font-family="Courier,monospace" font-size="14.00"> </text>
<text text-anchor="start" x="604" y="-213.3" font-family="Courier,monospace" font-weight="bold" font-size="10.00">evControlPilotObserver_Measure</text>
<text text-anchor="start" x="785" y="-213.3" font-family="Courier,monospace" font-size="10.00">[gControlPilotWireMeasureB]</text>
<text text-anchor="start" x="948" y="-213.3" font-family="Courier,monospace" font-size="14.00"> </text>
</g>
<!-- node12&#45;&gt;node3 -->
<g id="edge21" class="edge">
<title>node12&#45;&gt;node3</title>
<path fill="none" stroke="black" d="M901.91,-60.2C897.51,-83.47 893.94,-124.61 917,-147 954.9,-183.79 1118.09,-126.26 1154,-165 1158.53,-169.89 1158.44,-175.03 1154,-180 1106,-233.67 1041,-144.33 993,-198 982.33,-209.93 982.36,-222.05 993,-234 1123.01,-380.06 1299.99,-138.94 1430,-285 1440.64,-296.95 1440.67,-309.07 1430,-321 1411.31,-341.9 1009.23,-374.68 869.97,-385.44"/>
<polygon fill="black" stroke="black" points="869.34,-381.98 859.64,-386.24 869.87,-388.96 869.34,-381.98"/>
<text text-anchor="start" x="993" y="-213.3" font-family="Courier,monospace" font-size="14.00"> </text>
<text text-anchor="start" x="1002" y="-213.3" font-family="Courier,monospace" font-weight="bold" font-size="10.00">evControlPilotObserver_Measure</text>
<text text-anchor="start" x="1183" y="-213.3" font-family="Courier,monospace" font-size="10.00">[gControlPilotWireMeasureUnknownState]</text>
<text text-anchor="start" x="1412" y="-213.3" font-family="Courier,monospace" font-style="italic" font-size="10.00">/doResetIncrementSampleCtr();</text>
<text text-anchor="start" x="1587" y="-213.3" font-family="Courier,monospace" font-size="10.00"> </text>
<text text-anchor="start" x="1594" y="-213.3" font-family="Courier,monospace" font-size="14.00"> </text>
</g>
<!-- node12&#45;&gt;node5 -->
<g id="edge20" class="edge">
<title>node12&#45;&gt;node5</title>
<path fill="none" stroke="black" d="M878.92,-45.15C762.94,-54.72 308.43,-96.03 185,-165 137.52,-191.53 99.67,-244.26 79.94,-276.01"/>
<polygon fill="black" stroke="black" points="76.83,-274.38 74.64,-284.75 82.82,-278.02 76.83,-274.38"/>
<text text-anchor="start" x="185" y="-169.8" font-family="Courier,monospace" font-size="14.00"> </text>
<text text-anchor="start" x="194" y="-169.8" font-family="Courier,monospace" font-weight="bold" font-size="10.00">evControlPilotObserver_Measure</text>
<text text-anchor="start" x="375" y="-169.8" font-family="Courier,monospace" font-size="10.00">[gControlPilotWireMeasureB]</text>
<text text-anchor="start" x="538" y="-169.8" font-family="Courier,monospace" font-style="italic" font-size="10.00">/doResetIncrementSampleCtr();</text>
<text text-anchor="start" x="713" y="-169.8" font-family="Courier,monospace" font-size="10.00"> </text>
<text text-anchor="start" x="720" y="-169.8" font-family="Courier,monospace" font-size="14.00"> </text>
</g>
<!-- node12&#45;&gt;node12 -->
<g id="edge19" class="edge">
<title>node12&#45;&gt;node12</title>
<path fill="none" stroke="black" d="M933.24,-49.87C943.02,-50.04 951,-47.41 951,-42 951,-38.7 948.04,-36.44 943.51,-35.21"/>
<polygon fill="black" stroke="black" points="943.55,-31.7 933.24,-34.13 942.82,-38.66 943.55,-31.7"/>
<text text-anchor="start" x="951" y="-39.3" font-family="Courier,monospace" font-size="14.00"> </text>
<text text-anchor="start" x="960" y="-39.3" font-family="Courier,monospace" font-weight="bold" font-size="10.00">evControlPilotObserver_Measure</text>
<text text-anchor="start" x="1141" y="-39.3" font-family="Courier,monospace" font-size="10.00">[gControlPilotWireMeasureC]</text>
<text text-anchor="start" x="1304" y="-39.3" font-family="Courier,monospace" font-size="14.00"> </text>
</g>
<!-- node13 -->
<g id="node13" class="node">
<title>node13</title>
<path fill="#e0e0e0" stroke="#000000" d="M814,-495C814,-495 784,-495 784,-495 778,-495 772,-489 772,-483 772,-483 772,-471 772,-471 772,-465 778,-459 784,-459 784,-459 814,-459 814,-459 820,-459 826,-465 826,-471 826,-471 826,-483 826,-483 826,-489 820,-495 814,-495"/>
<text text-anchor="middle" x="799" y="-473.3" font-family="Arial" font-size="14.00">D</text>
</g>
<!-- node14 -->
<g id="node14" class="node">
<title>node14</title>
<path fill="#e0e0e0" stroke="#000000" d="M556,-495C556,-495 526,-495 526,-495 520,-495 514,-489 514,-483 514,-483 514,-471 514,-471 514,-465 520,-459 526,-459 526,-459 556,-459 556,-459 562,-459 568,-465 568,-471 568,-471 568,-483 568,-483 568,-489 562,-495 556,-495"/>
<text text-anchor="middle" x="541" y="-473.3" font-family="Arial" font-size="14.00">E</text>
</g>
<!-- node15 -->
<g id="node15" class="node">
<title>node15</title>
<path fill="#e0e0e0" stroke="#000000" d="M113,-495C113,-495 83,-495 83,-495 77,-495 71,-489 71,-483 71,-483 71,-471 71,-471 71,-465 77,-459 83,-459 83,-459 113,-459 113,-459 119,-459 125,-465 125,-471 125,-471 125,-483 125,-483 125,-489 119,-495 113,-495"/>
<text text-anchor="middle" x="98" y="-473.3" font-family="Arial" font-size="14.00">F</text>
</g>
</g>
</svg>
