<?xml version="1.0" encoding="UTF-8" standalone="no"?>
<!DOCTYPE svg PUBLIC "-//W3C//DTD SVG 1.1//EN"
 "http://www.w3.org/Graphics/SVG/1.1/DTD/svg11.dtd">
<!-- Generated by graphviz version 2.43.0 (0)
 -->
<!-- Title: Root Pages: 1 -->
<svg width="1727pt" height="673pt"
 viewBox="0.00 0.00 1727.00 672.60" xmlns="http://www.w3.org/2000/svg" xmlns:xlink="http://www.w3.org/1999/xlink">
<g id="graph0" class="graph" transform="scale(1 1) rotate(0) translate(4 668.6)">
<title>Root</title>
<polygon fill="white" stroke="transparent" points="-4,4 -4,-668.6 1723,-668.6 1723,4 -4,4"/>
<g id="clust1" class="cluster">
<title>cluster0</title>
<path fill="lightgrey" stroke="darkgray" d="M20,-8C20,-8 1679,-8 1679,-8 1685,-8 1691,-14 1691,-20 1691,-20 1691,-644.6 1691,-644.6 1691,-650.6 1685,-656.6 1679,-656.6 1679,-656.6 20,-656.6 20,-656.6 14,-656.6 8,-650.6 8,-644.6 8,-644.6 8,-20 8,-20 8,-14 14,-8 20,-8"/>
<text text-anchor="middle" x="849.5" y="-641.4" font-family="Arial" font-size="14.00">ControlPilotObserver</text>
</g>
<g id="clust2" class="cluster">
<title>cluster1</title>
<path fill="lightgrey" stroke="darkgray" d="M28,-16C28,-16 1671,-16 1671,-16 1677,-16 1683,-22 1683,-28 1683,-28 1683,-488.8 1683,-488.8 1683,-494.8 1677,-500.8 1671,-500.8 1671,-500.8 28,-500.8 28,-500.8 22,-500.8 16,-494.8 16,-488.8 16,-488.8 16,-28 16,-28 16,-22 22,-16 28,-16"/>
<text text-anchor="middle" x="849.5" y="-485.6" font-family="Arial" font-size="14.00">Observe</text>
</g>
<!-- node0 -->
<g id="node0" class="node">
<title>node0</title>
<ellipse fill="black" stroke="black" cx="280" cy="-620.2" rx="5.4" ry="5.4"/>
<text text-anchor="start" x="251.6" y="-629.2" font-family="Times,serif" font-style="italic" font-size="8.00">Initial</text>
</g>
<!-- node1 -->
<g id="node1" class="node">
<title>node1</title>
<path fill="#e0e0e0" stroke="#000000" d="M295,-577.8C295,-577.8 265,-577.8 265,-577.8 259,-577.8 253,-571.8 253,-565.8 253,-565.8 253,-553.8 253,-553.8 253,-547.8 259,-541.8 265,-541.8 265,-541.8 295,-541.8 295,-541.8 301,-541.8 307,-547.8 307,-553.8 307,-553.8 307,-565.8 307,-565.8 307,-571.8 301,-577.8 295,-577.8"/>
<text text-anchor="middle" x="280" y="-556.1" font-family="Arial" font-size="14.00">Wait</text>
</g>
<!-- node0&#45;&gt;node1 -->
<g id="edge1" class="edge">
<title>node0&#45;&gt;node1</title>
<path fill="none" stroke="black" d="M280,-614.62C280,-608.83 280,-598.4 280,-588.25"/>
<polygon fill="black" stroke="black" points="283.5,-587.98 280,-577.98 276.5,-587.98 283.5,-587.98"/>
</g>
<!-- node2 -->
<g id="node2" class="node">
<title>node2</title>
<ellipse fill="black" stroke="black" cx="280" cy="-464.4" rx="5.4" ry="5.4"/>
<text text-anchor="start" x="251.6" y="-473.4" font-family="Times,serif" font-style="italic" font-size="8.00">Initial</text>
</g>
<!-- node1&#45;&gt;node2 -->
<g id="edge2" class="edge">
<title>node1&#45;&gt;node2</title>
<path fill="none" stroke="black" d="M252.57,-557.65C228.76,-555.02 195.57,-547.08 179,-523.8 175.49,-518.87 174.18,-514.3 174.59,-510.07"/>
<polygon fill="black" stroke="black" points="177.84,-511.37 178.47,-500.8 171.38,-508.67 177.84,-511.37"/>
<text text-anchor="start" x="179" y="-513.6" font-family="Courier,monospace" font-size="14.00"> </text>
<text text-anchor="start" x="188" y="-513.6" font-family="Courier,monospace" font-weight="bold" font-size="10.00">evControlPilotObserverStart</text>
<text text-anchor="start" x="351" y="-513.6" font-family="Courier,monospace" font-size="14.00"> </text>
</g>
<!-- node2&#45;&gt;node1 -->
<g id="edge3" class="edge">
<title>node2&#45;&gt;node1</title>
<path fill="none" stroke="black" d="M359.04,-500.8C364.29,-507.6 365.56,-515.29 360,-523.8 350.38,-538.51 333.07,-547.07 317,-552.04"/>
<polygon fill="black" stroke="black" points="315.97,-548.7 307.24,-554.69 317.8,-555.45 315.97,-548.7"/>
<text text-anchor="start" x="363" y="-513.6" font-family="Courier,monospace" font-size="14.00"> </text>
<text text-anchor="start" x="372" y="-513.6" font-family="Courier,monospace" font-weight="bold" font-size="10.00">evControlPilotObserverStop</text>
<text text-anchor="start" x="529" y="-513.6" font-family="Courier,monospace" font-size="14.00"> </text>
</g>
<!-- node3 -->
<g id="node3" class="node">
<title>node3</title>
<path fill="#e0e0e0" stroke="#000000" d="M304.5,-408C304.5,-408 255.5,-408 255.5,-408 249.5,-408 243.5,-402 243.5,-396 243.5,-396 243.5,-384 243.5,-384 243.5,-378 249.5,-372 255.5,-372 255.5,-372 304.5,-372 304.5,-372 310.5,-372 316.5,-378 316.5,-384 316.5,-384 316.5,-396 316.5,-396 316.5,-402 310.5,-408 304.5,-408"/>
<text text-anchor="middle" x="280" y="-386.3" font-family="Arial" font-size="14.00">Unknown</text>
</g>
<!-- node2&#45;&gt;node3 -->
<g id="edge6" class="edge">
<title>node2&#45;&gt;node3</title>
<path fill="none" stroke="black" d="M280,-458.65C280,-450.55 280,-433.49 280,-418.52"/>
<polygon fill="black" stroke="black" points="283.5,-418.16 280,-408.16 276.5,-418.16 283.5,-418.16"/>
<text text-anchor="start" x="280" y="-430.8" font-family="Courier,monospace" font-size="14.00"> </text>
<text text-anchor="start" x="289" y="-430.8" font-family="Courier,monospace" font-size="10.00">[gControlPilotWireMeasureUnknownState]</text>
<text text-anchor="start" x="518" y="-430.8" font-family="Courier,monospace" font-size="14.00"> </text>
</g>
<!-- node4 -->
<g id="node4" class="node">
<title>node4</title>
<path fill="#e0e0e0" stroke="#000000" d="M998.5,-321C998.5,-321 939.5,-321 939.5,-321 933.5,-321 927.5,-315 927.5,-309 927.5,-309 927.5,-297 927.5,-297 927.5,-291 933.5,-285 939.5,-285 939.5,-285 998.5,-285 998.5,-285 1004.5,-285 1010.5,-291 1010.5,-297 1010.5,-297 1010.5,-309 1010.5,-309 1010.5,-315 1004.5,-321 998.5,-321"/>
<text text-anchor="middle" x="969" y="-299.3" font-family="Arial" font-size="14.00">UnknownC</text>
</g>
<!-- node2&#45;&gt;node4 -->
<g id="edge5" class="edge">
<title>node2&#45;&gt;node4</title>
<path fill="none" stroke="black" d="M285.48,-463.49C325.61,-464.03 578.2,-464.96 772,-408 833.66,-389.88 898.28,-351.46 936.03,-326.73"/>
<polygon fill="black" stroke="black" points="938.18,-329.51 944.58,-321.07 934.31,-323.67 938.18,-329.51"/>
<text text-anchor="start" x="856" y="-387.3" font-family="Courier,monospace" font-size="14.00"> </text>
<text text-anchor="start" x="865" y="-387.3" font-family="Courier,monospace" font-size="10.00">[gControlPilotWireMeasureC]</text>
<text text-anchor="start" x="1028" y="-387.3" font-family="Courier,monospace" font-size="14.00"> </text>
</g>
<!-- node5 -->
<g id="node5" class="node">
<title>node5</title>
<path fill="#e0e0e0" stroke="#000000" d="M436,-147C436,-147 378,-147 378,-147 372,-147 366,-141 366,-135 366,-135 366,-123 366,-123 366,-117 372,-111 378,-111 378,-111 436,-111 436,-111 442,-111 448,-117 448,-123 448,-123 448,-135 448,-135 448,-141 442,-147 436,-147"/>
<text text-anchor="middle" x="407" y="-125.3" font-family="Arial" font-size="14.00">UnknownB</text>
</g>
<!-- node2&#45;&gt;node5 -->
<g id="edge4" class="edge">
<title>node2&#45;&gt;node5</title>
<path fill="none" stroke="black" d="M275.02,-461.9C247.69,-453.4 114.99,-408.5 56,-321 25.18,-275.29 4.75,-240.38 40,-198 79.6,-150.39 264.65,-135.97 355.88,-131.71"/>
<polygon fill="black" stroke="black" points="356.16,-135.21 366,-131.27 355.85,-128.21 356.16,-135.21"/>
<text text-anchor="start" x="56" y="-300.3" font-family="Courier,monospace" font-size="14.00"> </text>
<text text-anchor="start" x="65" y="-300.3" font-family="Courier,monospace" font-size="10.00">[gControlPilotWireMeasureB]</text>
<text text-anchor="start" x="228" y="-300.3" font-family="Courier,monospace" font-size="14.00"> </text>
</g>
<!-- node3&#45;&gt;node3 -->
<g id="edge17" class="edge">
<title>node3&#45;&gt;node3</title>
<path fill="none" stroke="black" d="M316.68,-397.83C326.78,-397.45 334.5,-394.84 334.5,-390 334.5,-386.98 331.48,-384.82 326.76,-383.54"/>
<polygon fill="black" stroke="black" points="327.06,-380.05 316.68,-382.17 326.12,-386.99 327.06,-380.05"/>
<text text-anchor="start" x="334.5" y="-387.3" font-family="Courier,monospace" font-size="14.00"> </text>
<text text-anchor="start" x="343.5" y="-387.3" font-family="Courier,monospace" font-weight="bold" font-size="10.00">evControlPilotObserver_Measure</text>
<text text-anchor="start" x="524.5" y="-387.3" font-family="Courier,monospace" font-size="10.00">[gControlPilotWireMeasureUnknownState]</text>
<text text-anchor="start" x="753.5" y="-387.3" font-family="Courier,monospace" font-size="14.00"> </text>
</g>
<!-- node3&#45;&gt;node4 -->
<g id="edge19" class="edge">
<title>node3&#45;&gt;node4</title>
<path fill="none" stroke="black" d="M316.8,-379.67C364.64,-367.97 450.96,-348.31 526,-339 696.87,-317.79 743.31,-350.23 913,-321 914.47,-320.75 915.96,-320.47 917.45,-320.16"/>
<polygon fill="black" stroke="black" points="918.42,-323.53 927.38,-317.87 916.85,-316.71 918.42,-323.53"/>
<text text-anchor="start" x="526" y="-343.8" font-family="Courier,monospace" font-size="14.00"> </text>
<text text-anchor="start" x="535" y="-343.8" font-family="Courier,monospace" font-weight="bold" font-size="10.00">evControlPilotObserver_Measure</text>
<text text-anchor="start" x="716" y="-343.8" font-family="Courier,monospace" font-size="10.00">[gControlPilotWireMeasureC]</text>
<text text-anchor="start" x="879" y="-343.8" font-family="Courier,monospace" font-size="14.00"> </text>
</g>
<!-- node3&#45;&gt;node5 -->
<g id="edge18" class="edge">
<title>node3&#45;&gt;node5</title>
<path fill="none" stroke="black" d="M274.06,-371.75C263.24,-338.84 242.86,-268.86 259,-252 291.08,-218.51 643.92,-267.49 676,-234 687.07,-222.44 686.52,-210.06 676,-198 656.69,-175.85 573.53,-187.04 545,-180 515.06,-172.61 482.58,-161.03 456.66,-150.87"/>
<polygon fill="black" stroke="black" points="457.65,-147.5 447.06,-147.06 455.06,-154.01 457.65,-147.5"/>
<text text-anchor="start" x="259" y="-256.8" font-family="Courier,monospace" font-size="14.00"> </text>
<text text-anchor="start" x="268" y="-256.8" font-family="Courier,monospace" font-weight="bold" font-size="10.00">evControlPilotObserver_Measure</text>
<text text-anchor="start" x="449" y="-256.8" font-family="Courier,monospace" font-size="10.00">[gControlPilotWireMeasureB]</text>
<text text-anchor="start" x="612" y="-256.8" font-family="Courier,monospace" font-size="14.00"> </text>
</g>
<!-- node4&#45;&gt;node4 -->
<g id="edge12" class="edge">
<title>node4&#45;&gt;node4</title>
<path fill="none" stroke="black" d="M1010.71,-310.75C1020.91,-310.18 1028.5,-307.59 1028.5,-303 1028.5,-300.13 1025.53,-298.04 1020.82,-296.74"/>
<polygon fill="black" stroke="black" points="1021.11,-293.25 1010.71,-295.25 1020.09,-300.17 1021.11,-293.25"/>
<text text-anchor="start" x="1028.5" y="-300.3" font-family="Courier,monospace" font-size="14.00"> </text>
<text text-anchor="start" x="1037.5" y="-300.3" font-family="Courier,monospace" font-weight="bold" font-size="10.00">evControlPilotObserver_Measure</text>
<text text-anchor="start" x="1218.5" y="-300.3" font-family="Courier,monospace" font-size="10.00">[gControlPilotObserverMeasure_C_ButNotLongEnough]</text>
<text text-anchor="start" x="1513.5" y="-300.3" font-family="Courier,monospace" font-style="italic" font-size="10.00">/doIncrementSampleCtr();</text>
<text text-anchor="start" x="1658.5" y="-300.3" font-family="Courier,monospace" font-size="10.00"> </text>
<text text-anchor="start" x="1665.5" y="-300.3" font-family="Courier,monospace" font-size="14.00"> </text>
</g>
<!-- node6 -->
<g id="node6" class="node">
<title>node6</title>
<path fill="#e0e0e0" stroke="#000000" d="M752,-234C752,-234 722,-234 722,-234 716,-234 710,-228 710,-222 710,-222 710,-210 710,-210 710,-204 716,-198 722,-198 722,-198 752,-198 752,-198 758,-198 764,-204 764,-210 764,-210 764,-222 764,-222 764,-228 758,-234 752,-234"/>
<text text-anchor="middle" x="737" y="-212.3" font-family="Arial" font-size="14.00">C</text>
</g>
<!-- node4&#45;&gt;node6 -->
<g id="edge13" class="edge">
<title>node4&#45;&gt;node6</title>
<path fill="none" stroke="black" d="M927.35,-288.31C922.55,-287.04 917.69,-285.9 913,-285 889.67,-280.53 716.07,-284.49 700,-267 692.71,-259.07 696.72,-249.72 704.33,-241.27"/>
<polygon fill="black" stroke="black" points="706.98,-243.59 711.76,-234.13 702.12,-238.54 706.98,-243.59"/>
<text text-anchor="start" x="700" y="-256.8" font-family="Courier,monospace" font-size="14.00"> </text>
<text text-anchor="start" x="709" y="-256.8" font-family="Courier,monospace" font-weight="bold" font-size="10.00">evControlPilotObserver_Measure</text>
<text text-anchor="start" x="890" y="-256.8" font-family="Courier,monospace" font-size="10.00">[gControlPilotObserverMeasure_C_LongEnough]</text>
<text text-anchor="start" x="1149" y="-256.8" font-family="Courier,monospace" font-size="14.00"> </text>
</g>
<!-- node5&#45;&gt;node5 -->
<g id="edge7" class="edge">
<title>node5&#45;&gt;node5</title>
<path fill="none" stroke="black" d="M448.08,-136.77C458.34,-136.22 466,-133.63 466,-129 466,-126.1 463.01,-124.01 458.26,-122.71"/>
<polygon fill="black" stroke="black" points="458.48,-119.2 448.08,-121.23 457.48,-126.13 458.48,-119.2"/>
<text text-anchor="start" x="466" y="-126.3" font-family="Courier,monospace" font-size="14.00"> </text>
<text text-anchor="start" x="475" y="-126.3" font-family="Courier,monospace" font-weight="bold" font-size="10.00">evControlPilotObserver_Measure</text>
<text text-anchor="start" x="656" y="-126.3" font-family="Courier,monospace" font-size="10.00">[gControlPilotObserverMeasure_B_ButNotLongEnough]</text>
<text text-anchor="start" x="951" y="-126.3" font-family="Courier,monospace" font-style="italic" font-size="10.00">/doIncrementSampleCtr();</text>
<text text-anchor="start" x="1096" y="-126.3" font-family="Courier,monospace" font-size="10.00"> </text>
<text text-anchor="start" x="1103" y="-126.3" font-family="Courier,monospace" font-size="14.00"> </text>
</g>
<!-- node7 -->
<g id="node7" class="node">
<title>node7</title>
<path fill="#e0e0e0" stroke="#000000" d="M422,-60C422,-60 392,-60 392,-60 386,-60 380,-54 380,-48 380,-48 380,-36 380,-36 380,-30 386,-24 392,-24 392,-24 422,-24 422,-24 428,-24 434,-30 434,-36 434,-36 434,-48 434,-48 434,-54 428,-60 422,-60"/>
<text text-anchor="middle" x="407" y="-38.3" font-family="Arial" font-size="14.00">B</text>
</g>
<!-- node5&#45;&gt;node7 -->
<g id="edge8" class="edge">
<title>node5&#45;&gt;node7</title>
<path fill="none" stroke="black" d="M407,-110.8C407,-99.16 407,-83.55 407,-70.24"/>
<polygon fill="black" stroke="black" points="410.5,-70.18 407,-60.18 403.5,-70.18 410.5,-70.18"/>
<text text-anchor="start" x="407" y="-82.8" font-family="Courier,monospace" font-size="14.00"> </text>
<text text-anchor="start" x="416" y="-82.8" font-family="Courier,monospace" font-weight="bold" font-size="10.00">evControlPilotObserver_Measure</text>
<text text-anchor="start" x="597" y="-82.8" font-family="Courier,monospace" font-size="10.00">[gControlPilotObserverMeasure_B_LongEnough]</text>
<text text-anchor="start" x="856" y="-82.8" font-family="Courier,monospace" font-size="14.00"> </text>
</g>
<!-- node6&#45;&gt;node3 -->
<g id="edge16" class="edge">
<title>node6&#45;&gt;node3</title>
<path fill="none" stroke="black" d="M709.92,-232.45C687.83,-244.22 655.42,-259.61 625,-267 590.83,-275.3 336.39,-262.94 309,-285 286.36,-303.23 280.51,-337.53 279.41,-361.74"/>
<polygon fill="black" stroke="black" points="275.91,-361.67 279.2,-371.75 282.91,-361.82 275.91,-361.67"/>
<text text-anchor="start" x="309" y="-300.3" font-family="Courier,monospace" font-size="14.00"> </text>
<text text-anchor="start" x="318" y="-300.3" font-family="Courier,monospace" font-weight="bold" font-size="10.00">evControlPilotObserver_Measure</text>
<text text-anchor="start" x="499" y="-300.3" font-family="Courier,monospace" font-size="10.00">[gControlPilotWireMeasureUnknownState]</text>
<text text-anchor="start" x="728" y="-300.3" font-family="Courier,monospace" font-style="italic" font-size="10.00">/doResetIncrementSampleCtr();</text>
<text text-anchor="start" x="903" y="-300.3" font-family="Courier,monospace" font-size="10.00"> </text>
<text text-anchor="start" x="910" y="-300.3" font-family="Courier,monospace" font-size="14.00"> </text>
</g>
<!-- node6&#45;&gt;node5 -->
<g id="edge15" class="edge">
<title>node6&#45;&gt;node5</title>
<path fill="none" stroke="black" d="M709.99,-202.66C705.39,-200.89 700.61,-199.25 696,-198 639.28,-182.62 620.06,-200.55 565,-180 553.57,-175.73 553.16,-169.93 542,-165 515.31,-153.22 483.83,-144.77 457.99,-139.13"/>
<polygon fill="black" stroke="black" points="458.53,-135.67 448.02,-137.03 457.09,-142.52 458.53,-135.67"/>
<text text-anchor="start" x="565" y="-169.8" font-family="Courier,monospace" font-size="14.00"> </text>
<text text-anchor="start" x="574" y="-169.8" font-family="Courier,monospace" font-weight="bold" font-size="10.00">evControlPilotObserver_Measure</text>
<text text-anchor="start" x="755" y="-169.8" font-family="Courier,monospace" font-size="10.00">[gControlPilotWireMeasureB]</text>
<text text-anchor="start" x="918" y="-169.8" font-family="Courier,monospace" font-style="italic" font-size="10.00">/doResetIncrementSampleCtr();</text>
<text text-anchor="start" x="1093" y="-169.8" font-family="Courier,monospace" font-size="10.00"> </text>
<text text-anchor="start" x="1100" y="-169.8" font-family="Courier,monospace" font-size="14.00"> </text>
</g>
<!-- node6&#45;&gt;node6 -->
<g id="edge14" class="edge">
<title>node6&#45;&gt;node6</title>
<path fill="none" stroke="black" d="M764.24,-223.87C774.02,-224.04 782,-221.41 782,-216 782,-212.7 779.04,-210.44 774.51,-209.21"/>
<polygon fill="black" stroke="black" points="774.55,-205.7 764.24,-208.13 773.82,-212.66 774.55,-205.7"/>
<text text-anchor="start" x="782" y="-213.3" font-family="Courier,monospace" font-size="14.00"> </text>
<text text-anchor="start" x="791" y="-213.3" font-family="Courier,monospace" font-weight="bold" font-size="10.00">evControlPilotObserver_Measure</text>
<text text-anchor="start" x="972" y="-213.3" font-family="Courier,monospace" font-size="10.00">[gControlPilotWireMeasureC]</text>
<text text-anchor="start" x="1135" y="-213.3" font-family="Courier,monospace" font-size="14.00"> </text>
</g>
<!-- node7&#45;&gt;node3 -->
<g id="edge11" class="edge">
<title>node7&#45;&gt;node3</title>
<path fill="none" stroke="black" d="M379.59,-45.61C311.5,-53.73 134.94,-85.26 62,-198 14.82,-270.93 174.42,-224.76 237,-285 237.05,-285.04 259.97,-353.94 260,-354 261.34,-357 262.87,-360.08 264.46,-363.11"/>
<polygon fill="black" stroke="black" points="261.43,-364.86 269.34,-371.91 267.55,-361.46 261.43,-364.86"/>
<text text-anchor="start" x="62" y="-213.3" font-family="Courier,monospace" font-size="14.00"> </text>
<text text-anchor="start" x="71" y="-213.3" font-family="Courier,monospace" font-weight="bold" font-size="10.00">evControlPilotObserver_Measure</text>
<text text-anchor="start" x="252" y="-213.3" font-family="Courier,monospace" font-size="10.00">[gControlPilotWireMeasureUnknownState]</text>
<text text-anchor="start" x="481" y="-213.3" font-family="Courier,monospace" font-style="italic" font-size="10.00">/doResetIncrementSampleCtr();</text>
<text text-anchor="start" x="656" y="-213.3" font-family="Courier,monospace" font-size="10.00"> </text>
<text text-anchor="start" x="663" y="-213.3" font-family="Courier,monospace" font-size="14.00"> </text>
</g>
<!-- node7&#45;&gt;node4 -->
<g id="edge10" class="edge">
<title>node7&#45;&gt;node4</title>
<path fill="none" stroke="black" d="M434.29,-43.85C558.47,-47.97 1066.41,-67.37 1121,-111 1176.66,-155.49 1203.57,-212.22 1158,-267 1140.83,-287.64 1070.57,-296.16 1020.75,-299.64"/>
<polygon fill="black" stroke="black" points="1020.52,-296.15 1010.76,-300.29 1020.97,-303.14 1020.52,-296.15"/>
<text text-anchor="start" x="1175" y="-169.8" font-family="Courier,monospace" font-size="14.00"> </text>
<text text-anchor="start" x="1184" y="-169.8" font-family="Courier,monospace" font-weight="bold" font-size="10.00">evControlPilotObserver_Measure</text>
<text text-anchor="start" x="1365" y="-169.8" font-family="Courier,monospace" font-size="10.00">[gControlPilotWireMeasureC]</text>
<text text-anchor="start" x="1528" y="-169.8" font-family="Courier,monospace" font-style="italic" font-size="10.00">/doResetIncrementSampleCtr();</text>
<text text-anchor="start" x="1703" y="-169.8" font-family="Courier,monospace" font-size="10.00"> </text>
<text text-anchor="start" x="1710" y="-169.8" font-family="Courier,monospace" font-size="14.00"> </text>
</g>
<!-- node7&#45;&gt;node7 -->
<g id="edge9" class="edge">
<title>node7&#45;&gt;node7</title>
<path fill="none" stroke="black" d="M434.24,-49.87C444.02,-50.04 452,-47.41 452,-42 452,-38.7 449.04,-36.44 444.51,-35.21"/>
<polygon fill="black" stroke="black" points="444.55,-31.7 434.24,-34.13 443.82,-38.66 444.55,-31.7"/>
<text text-anchor="start" x="452" y="-39.3" font-family="Courier,monospace" font-size="14.00"> </text>
<text text-anchor="start" x="461" y="-39.3" font-family="Courier,monospace" font-weight="bold" font-size="10.00">evControlPilotObserver_Measure</text>
<text text-anchor="start" x="642" y="-39.3" font-family="Courier,monospace" font-size="10.00">[gControlPilotWireMeasureB]</text>
<text text-anchor="start" x="805" y="-39.3" font-family="Courier,monospace" font-size="14.00"> </text>
</g>
</g>
</svg>
