<?xml version="1.0" encoding="UTF-8" standalone="no"?>
<!DOCTYPE svg PUBLIC "-//W3C//DTD SVG 1.1//EN"
 "http://www.w3.org/Graphics/SVG/1.1/DTD/svg11.dtd">
<!-- Generated by graphviz version 2.43.0 (0)
 -->
<!-- Title: Root Pages: 1 -->
<svg width="444pt" height="78pt"
 viewBox="0.00 0.00 444.40 78.00" xmlns="http://www.w3.org/2000/svg" xmlns:xlink="http://www.w3.org/1999/xlink">
<g id="graph0" class="graph" transform="scale(1 1) rotate(0) translate(4 74)">
<title>Root</title>
<polygon fill="white" stroke="transparent" points="-4,4 -4,-74 440.4,-74 440.4,4 -4,4"/>
<g id="clust1" class="cluster">
<title>cluster0</title>
<path fill="lightgrey" stroke="darkgray" d="M27.4,-8C27.4,-8 416.4,-8 416.4,-8 422.4,-8 428.4,-14 428.4,-20 428.4,-20 428.4,-50 428.4,-50 428.4,-56 422.4,-62 416.4,-62 416.4,-62 27.4,-62 27.4,-62 21.4,-62 15.4,-56 15.4,-50 15.4,-50 15.4,-20 15.4,-20 15.4,-14 21.4,-8 27.4,-8"/>
<text text-anchor="middle" x="221.9" y="-46.8" font-family="Arial" font-size="14.00">SetControlPilotStateToC</text>
</g>
<!-- node0 -->
<g id="node0" class="node">
<title>node0</title>
<ellipse fill="black" stroke="black" cx="28.4" cy="-23.5" rx="5.4" ry="5.4"/>
<text text-anchor="start" x="0" y="-32.5" font-family="Times,serif" font-style="italic" font-size="8.00">Initial</text>
</g>
<!-- node0&#45;&gt;node0 -->
<g id="edge1" class="edge">
<title>node0&#45;&gt;node0</title>
<path fill="none" stroke="black" d="M33.92,-24.71C41.89,-25.9 51.8,-25.49 51.8,-23.5 51.8,-22.35 48.49,-21.73 44.16,-21.64"/>
<polygon fill="black" stroke="black" points="43.68,-18.16 33.92,-22.29 44.12,-25.15 43.68,-18.16"/>
<text text-anchor="start" x="51.8" y="-20.8" font-family="Courier,monospace" font-size="14.00"> </text>
<text text-anchor="start" x="60.8" y="-20.8" font-family="Courier,monospace" font-weight="bold" font-size="10.00">evSetControlPilotStateToC</text>
<text text-anchor="start" x="211.8" y="-20.8" font-family="Courier,monospace" font-style="italic" font-size="10.00">/doSetControlPilotWireVoltage();</text>
<text text-anchor="start" x="404.8" y="-20.8" font-family="Courier,monospace" font-size="10.00"> </text>
<text text-anchor="start" x="411.8" y="-20.8" font-family="Courier,monospace" font-size="14.00"> </text>
</g>
</g>
</svg>
